PathFileType	4	(X/Y/Z)	/Users/itak/Documents/Research/Walk-IL/dataset/trc/00224_00009.trc
DataRate	CameraRate	NumFrames	NumMarkers	Units	OrigDataRate	OrigDataStartFrame	OrigNumFrames
100.000000	100.000000	4	53	mm	100.000000	265	530
Frame#	Time	RPSI			LPSI			L3			STRN			T10			C7			CLAV			RBAK			LBAK			LSHO			LUPA			LAEL			LAOL			LWTS			LWPS			LFRA			LIFD			LHPS			LHTS			RSHO			RUPA			RAEL			RAOL			RWTS			RWPS			RFRA			RIFD			RHTS			RHPS			RBHD			LFHD			RFHD			LBHD			LHIP			RHIP			RASI			LASI			LKNE			LTHI			LANK			LTIP			LTOE			LMT1			LMT5			LHEE			RKNE			RANK			RTIP			RTOE			RMT1			RMT5			RHEE			RTHI			
		X1	Y1	Z1	X2	Y2	Z2	X3	Y3	Z3	X4	Y4	Z4	X5	Y5	Z5	X6	Y6	Z6	X7	Y7	Z7	X8	Y8	Z8	X9	Y9	Z9	X10	Y10	Z10	X11	Y11	Z11	X12	Y12	Z12	X13	Y13	Z13	X14	Y14	Z14	X15	Y15	Z15	X16	Y16	Z16	X17	Y17	Z17	X18	Y18	Z18	X19	Y19	Z19	X20	Y20	Z20	X21	Y21	Z21	X22	Y22	Z22	X23	Y23	Z23	X24	Y24	Z24	X25	Y25	Z25	X26	Y26	Z26	X27	Y27	Z27	X28	Y28	Z28	X29	Y29	Z29	X30	Y30	Z30	X31	Y31	Z31	X32	Y32	Z32	X33	Y33	Z33	X34	Y34	Z34	X35	Y35	Z35	X36	Y36	Z36	X37	Y37	Z37	X38	Y38	Z38	X39	Y39	Z39	X40	Y40	Z40	X41	Y41	Z41	X42	Y42	Z42	X43	Y43	Z43	X44	Y44	Z44	X45	Y45	Z45	X46	Y46	Z46	X47	Y47	Z47	X48	Y48	Z48	X49	Y49	Z49	X50	Y50	Z50	X51	Y51	Z51	X52	Y52	Z52	X53	Y53	Z53	

266	2.65	-410.9638366699219	1036.774291992188	-79.95136260986328	-417.7751770019531	1039.6337890625	40.70828628540039	-418.5802001953125	1123.394287109375	-10.37151432037354	-680.5888061523438	1286.757690429688	-0.8733862042427063	-422.6595458984375	1247.88232421875	-27.08369255065918	-505.6975708007812	1504.117065429688	-23.72471809387207	-662.74755859375	1405.559814453125	-4.423972606658936	-426.2317810058594	1370.79248046875	-105.8619384765625	-472.8356018066406	1468.087890625	84.93988800048828	-554.7971801757812	1463.567749023438	152.2828216552734	-503.2615356445312	1347.817504882812	225.0787506103516	-485.0721130371094	1137.890747070312	250.5410308837891	-421.4473571777344	1130.513061523438	191.1331329345703	-555.0880126953125	893.5581665039062	205.4873046875	-514.55517578125	882.5054931640625	279.4933166503906	-492.5308532714844	1029.072265625	266.69775390625	-525.1832885742188	706.2393798828125	210.6487274169922	-518.6524047851562	793.4603881835938	279.8783569335938	-569.0933837890625	787.8638305664062	234.1783599853516	-579.8123779296875	1452.795654296875	-182.8300018310547	-568.6648559570312	1388.094360351562	-251.6523590087891	-571.07763671875	1105.118286132812	-287.6640930175781	-519.6162109375	1096.644287109375	-208.8664398193359	-723.3175659179688	916.8074951171875	-204.2425231933594	-687.18310546875	890.1226196289062	-275.7118225097656	-607.5310668945312	1039.775756835938	-290.5350036621094	-767.3511962890625	730.84912109375	-178.6399993896484	-785.615234375	805.265625	-202.0532836914062	-743.7029418945312	791.611083984375	-260.4234008789062	-551.5755615234375	1652.0185546875	-69.94584655761719	-752.4791870117188	1692.71240234375	28.70611381530762	-754.4850463867188	1688.139038085938	-71.50719451904297	-593.5816650390625	1662.726196289062	63.40300369262695	-524.38330078125	972.521240234375	173.2342071533203	-497.9676818847656	992.2723388671875	-193.6256866455078	-599.9918212890625	1027.493896484375	-161.1624908447266	-623.0599365234375	1009.600708007812	118.8817443847656	-702.9310302734375	519.6216430664062	128.3213653564453	-645.5016479492188	649.4293823242188	161.4411468505859	-796.6196899414062	42.47536087036133	118.6550598144531	-738.3203125	292.7192077636719	135.5855560302734	-992.02001953125	119.071044921875	52.79058456420898	-924.9861450195312	94.42682647705078	13.93982410430908	-918.5576782226562	80.29435729980469	126.9729537963867	-730.492431640625	32.20831298828125	72.50176239013672	-548.275146484375	496.2507934570312	-140.968505859375	-376.3685913085938	37.22306060791016	-98.55165863037109	-538.021240234375	373.3108825683594	-119.333625793457	-586.6756591796875	45.98210525512695	-57.80383682250977	-532.9865112304688	43.56584548950195	-14.70621204376221	-486.7810974121094	35.88948822021484	-127.8380279541016	-313.8358459472656	42.34039306640625	-37.86220550537109	-556.013916015625	763.214111328125	-195.5803070068359	
267	2.66	-402.1513977050781	1037.712890625	-80.35358428955078	-409.0527954101562	1040.368530273438	40.22741317749023	-409.9428405761719	1124.293090820312	-10.62088966369629	-672.8839111328125	1286.859252929688	-1.759616255760193	-414.7335815429688	1248.83837890625	-27.26744079589844	-498.7173461914062	1504.841552734375	-24.42694282531738	-655.53662109375	1405.733032226562	-5.452017307281494	-418.5670471191406	1371.582153320312	-106.0950546264648	-466.1251220703125	1469.131591796875	84.46985626220703	-548.2907104492188	1464.303955078125	151.5719757080078	-496.834228515625	1348.629516601562	224.6038970947266	-478.3587951660156	1138.459106445312	249.5263824462891	-414.3585205078125	1131.42138671875	190.5038604736328	-547.753173828125	894.2484741210938	202.9527130126953	-507.6984252929688	882.8720703125	277.1575317382812	-485.7841491699219	1029.527221679688	265.13525390625	-518.8604736328125	707.0379638671875	207.1076965332031	-511.8222045898438	793.8031616210938	277.0913696289062	-561.9735107421875	788.4312133789062	230.9848175048828	-572.2097778320312	1452.845581054688	-183.6404571533203	-560.7067260742188	1388.139282226562	-252.3467407226562	-562.8140258789062	1105.100830078125	-288.2161865234375	-511.2275085449219	1097.127197265625	-209.2903442382812	-715.311767578125	917.1199340820312	-204.6375885009766	-679.0243530273438	890.13720703125	-275.9615478515625	-599.3289184570312	1039.749145507812	-291.0374145507812	-759.8937377929688	731.3955078125	-178.6108551025391	-778.3922729492188	805.924072265625	-202.5096282958984	-735.7708740234375	791.7542724609375	-260.6182556152344	-545.4805908203125	1652.756591796875	-71.33506011962891	-746.6052856445312	1692.201538085938	27.26923370361328	-748.606201171875	1687.515869140625	-72.95549774169922	-587.5371704101562	1663.311279296875	62.00838470458984	-515.3967895507812	972.6483154296875	172.4025421142578	-488.99755859375	993.287109375	-194.1416625976562	-591.1771240234375	1028.165771484375	-161.7297058105469	-614.3934936523438	1009.639709472656	118.3515777587891	-695.5515747070312	520.249755859375	127.9579391479492	-637.2027587890625	649.798095703125	161.8023376464844	-786.2926025390625	42.89355850219727	118.3902359008789	-729.5343627929688	293.2814331054688	135.2228240966797	-983.3917846679688	118.1069412231445	56.25767135620117	-916.9434204101562	94.00030517578125	16.18288803100586	-908.245849609375	79.94558715820312	129.0846862792969	-721.1304931640625	33.01107025146484	71.05072784423828	-544.6445922851562	497.3521728515625	-142.0489501953125	-376.3111877441406	37.00689315795898	-98.84960174560547	-535.5439453125	374.2417297363281	-120.0631790161133	-586.66796875	45.97846221923828	-57.83489227294922	-532.9812622070312	43.65951538085938	-14.79637336730957	-486.7731018066406	35.86252975463867	-127.9175796508789	-313.8536071777344	42.07592010498047	-38.1121826171875	-548.7999267578125	764.8353881835938	-196.4750061035156	
268	2.67	-393.5572204589844	1038.661376953125	-80.76995849609375	-400.4902954101562	1041.252563476562	39.70436096191406	-401.4250793457031	1125.318603515625	-10.90544319152832	-665.2227172851562	1287.210693359375	-2.568944454193115	-406.8710632324219	1249.943481445312	-27.37409019470215	-491.7017211914062	1505.724365234375	-25.01682662963867	-648.2984008789062	1406.146850585938	-6.397302627563477	-410.8479919433594	1372.534790039062	-106.1934356689453	-459.388916015625	1470.318359375	84.10877227783203	-541.7694091796875	1465.224853515625	150.9472503662109	-490.4626159667969	1349.633178710938	224.2499389648438	-471.7700805664062	1139.212158203125	248.6422424316406	-407.3681640625	1132.492309570312	190.0909881591797	-540.5366821289062	895.1424560546875	200.5300445556641	-501.0568237304688	883.4196166992188	274.9474487304688	-479.1941223144531	1030.1689453125	263.7181396484375	-512.8499145507812	708.0072021484375	203.6554870605469	-505.2140502929688	794.3363037109375	274.3896484375	-555.07080078125	789.2245483398438	227.8774871826172	-564.518798828125	1453.124877929688	-184.3707122802734	-552.6443481445312	1388.391235351562	-252.9472961425781	-554.41455078125	1105.317993164062	-288.6377563476562	-502.7005310058594	1097.73779296875	-209.5592498779297	-707.004638671875	917.4548950195312	-205.1244964599609	-670.5457153320312	890.2899169921875	-276.3255615234375	-590.9255981445312	1039.940795898438	-291.4637756347656	-751.9929809570312	731.9030151367188	-178.8916473388672	-770.7656860351562	806.5473022460938	-203.1940002441406	-727.4234619140625	791.9898681640625	-261.04150390625	-539.3607177734375	1653.699340820312	-72.58921051025391	-740.749755859375	1691.848999023438	25.88309097290039	-742.7035522460938	1687.029663085938	-74.358154296875	-581.5142822265625	1664.11865234375	60.73051452636719	-506.594482421875	973.1676025390625	171.6148681640625	-480.2971801757812	994.25390625	-194.6124572753906	-582.619384765625	1029.045043945312	-162.2312927246094	-605.8533935546875	1010.037475585938	117.8516387939453	-688.4014282226562	521.1983642578125	127.6049499511719	-629.3058471679688	650.5770874023438	162.0498199462891	-774.3385009765625	43.23931503295898	118.1871185302734	-720.1441040039062	293.9627685546875	134.8572540283203	-973.378173828125	116.3437957763672	59.86246871948242	-907.4927978515625	92.97840881347656	18.53582954406738	-896.4273681640625	79.03865051269531	131.2662811279297	-710.1104736328125	34.05207824707031	69.61321258544922	-541.1203002929688	498.5397033691406	-142.9825439453125	-376.3093872070312	36.87290954589844	-99.13242340087891	-533.1046752929688	375.2880554199219	-120.6716537475586	-586.713134765625	45.9620475769043	-57.87309646606445	-533.0028686523438	43.76868057250977	-14.90330600738525	-486.7811584472656	35.8304557800293	-127.9912490844727	-313.9134521484375	41.98710250854492	-38.3723030090332	-541.6959228515625	766.61865234375	-197.3463134765625	
269	2.68	-385.1897583007812	1039.593627929688	-81.22334289550781	-392.088623046875	1042.275512695312	39.12235260009766	-393.0385437011719	1126.457763671875	-11.25941467285156	-657.6026000976562	1287.783813476562	-3.314271211624146	-399.0770263671875	1251.180297851562	-27.44322395324707	-484.6584167480469	1506.747314453125	-25.50333023071289	-641.0390625	1406.778198242188	-7.274752140045166	-403.0899353027344	1373.639404296875	-106.1957168579102	-452.6289672851562	1471.62890625	83.843505859375	-535.25	1466.313842773438	150.3931884765625	-484.1519775390625	1350.818969726562	223.9942016601562	-465.3062438964844	1140.149047851562	247.8731842041016	-400.4785461425781	1133.71923828125	189.8820648193359	-533.4660034179688	896.2379150390625	198.2449188232422	-494.6520690917969	884.1558837890625	272.884765625	-472.7682495117188	1031	262.4490966796875	-507.0992736816406	709.134521484375	200.3347930908203	-498.8378295898438	795.0660400390625	271.8040466308594	-548.374755859375	790.2306518554688	224.8856658935547	-556.7606811523438	1453.639770507812	-185.0281677246094	-544.5037231445312	1388.8623046875	-253.4696960449219	-545.8612670898438	1105.77880859375	-288.9229125976562	-494.0471496582031	1098.463989257812	-209.6749877929688	-698.4072265625	917.8236083984375	-205.7037048339844	-661.7512817382812	890.5999755859375	-276.7999877929688	-582.3093872070312	1040.360229492188	-291.8090209960938	-743.6153564453125	732.3660278320312	-179.4883880615234	-762.6090087890625	807.1016845703125	-204.0613555908203	-718.667236328125	792.3379516601562	-261.6718444824219	-533.1981811523438	1654.81884765625	-73.69773864746094	-734.895263671875	1691.64794921875	24.55979347229004	-736.753662109375	1686.680419921875	-75.70417022705078	-575.49755859375	1665.112548828125	59.57876205444336	-497.9847717285156	974.0969848632812	170.8788299560547	-471.8717041015625	995.14013671875	-195.0595550537109	-574.3060913085938	1030.080810546875	-162.6704559326172	-597.4346313476562	1010.8056640625	117.3739624023438	-681.4279174804688	522.4729614257812	127.251823425293	-621.7942504882812	651.78076171875	162.1249847412109	-760.8511962890625	43.52649688720703	118.0520782470703	-710.1646118164062	294.7673950195312	134.4952697753906	-961.9300537109375	113.9210357666016	63.40174102783203	-896.5584716796875	91.44644165039062	20.86240386962891	-883.1757202148438	77.68826293945312	133.3999786376953	-697.4566040039062	35.27594757080078	68.29488372802734	-537.5531616210938	499.7753601074219	-143.6778411865234	-376.3403625488281	36.80435180664062	-99.35859680175781	-530.5943603515625	376.4142456054688	-121.0896453857422	-586.7942504882812	45.93884658813477	-57.90653610229492	-533.0390625	43.86598205566406	-14.9973316192627	-486.7988891601562	35.81232452392578	-128.034912109375	-313.9878540039062	41.98591232299805	-38.59288024902344	-534.544677734375	768.4716186523438	-198.2539825439453	
